<svg xmlns="http://www.w3.org/2000/svg" viewBox="0 0 32 32" role="img" aria-label="ES Designs">
  <title>ES Designs</title>
  <!-- Studio theme: Night #0B1026, Hull #EEF0F4 letters (Saira Bold, as paths), Thrust orange mark -->
  <rect width="32" height="32" rx="7" fill="#0B1026"/>
  <path fill="#EEF0F4" d="M4.65411931818182 20.038636363636364V6.161363636363639H14.37627840909091V8.864204545454546H8.163778409090911V11.708238636363637H13.428267045454547V14.370738636363637H8.163778409090911V17.335795454545455H14.37627840909091V20.038636363636364ZM22.36377840909091 20.2Q21.55696022727273 20.2 20.61903409090909 20.15965909090909Q19.681107954545453 20.119318181818183 18.783522727272725 20.038636363636364Q17.8859375 19.957954545454545 17.17997159090909 19.87727272727273V17.275284090909093Q17.92627840909091 17.335795454545455 18.682670454545452 17.39630681818182Q19.4390625 17.456818181818182 20.124857954545455 17.476988636363636Q20.81065340909091 17.497159090909093 21.274573863636363 17.497159090909093Q22.24275568181818 17.497159090909093 22.747017045454545 17.426562500000003Q23.251278409090908 17.35596590909091 23.493323863636363 17.214772727272727Q23.6546875 17.073579545454546 23.725284090909092 16.91221590909091Q23.795880681818183 16.750852272727272 23.816051136363637 16.528977272727275Q23.83622159090909 16.307102272727274 23.83622159090909 16.024715909090908Q23.83622159090909 15.601136363636364 23.785795454545454 15.349005681818182Q23.735369318181817 15.096875 23.58409090909091 14.95568181818182Q23.4328125 14.814488636363638 23.130255681818184 14.743892045454547Q22.827698863636364 14.673295454545455 22.343607954545455 14.612784090909091L19.499573863636364 14.24971590909091Q18.672585227272727 14.148863636363638 18.14815340909091 13.83622159090909Q17.623721590909092 13.523579545454545 17.321164772727272 12.999147727272728Q17.018607954545455 12.47471590909091 16.897585227272728 11.758664772727276Q16.7765625 11.042613636363638 16.7765625 10.155113636363637Q16.7765625 8.783522727272729 17.17997159090909 7.96661931818182Q17.583380681818184 7.1497159090909115 18.29943181818182 6.716051136363639Q19.015482954545455 6.282386363636366 19.973579545454545 6.141193181818184Q20.931676136363635 6.000000000000002 22.061221590909092 6.000000000000002Q22.868039772727272 6.000000000000002 23.735369318181817 6.0504261363636385Q24.602698863636363 6.100852272727275 25.369176136363635 6.191619318181821Q26.135653409090907 6.282386363636366 26.639914772727273 6.4034090909090935V8.944886363636366Q26.135653409090907 8.864204545454546 25.45994318181818 8.813778409090911Q24.784232954545452 8.763352272727275 24.058096590909088 8.733096590909092Q23.331960227272727 8.702840909090911 22.686505681818183 8.702840909090911Q21.899857954545453 8.702840909090911 21.4359375 8.753267045454546Q20.972017045454546 8.803693181818183 20.709801136363637 8.944886363636366Q20.427414772727275 9.106250000000001 20.356818181818184 9.368465909090911Q20.286221590909093 9.63068181818182 20.286221590909093 10.03409090909091Q20.286221590909093 10.538352272727273 20.36690340909091 10.81065340909091Q20.44758522727273 11.082954545454546 20.72997159090909 11.183806818181818Q21.012357954545454 11.284659090909091 21.597301136363637 11.36534090909091L24.360653409090908 11.688068181818183Q24.925426136363637 11.748579545454547 25.399431818181817 11.889772727272728Q25.8734375 12.030965909090911 26.266761363636363 12.33352272727273Q26.660085227272727 12.636079545454546 26.922301136363636 13.200852272727275Q27.063494318181817 13.463068181818183 27.144176136363637 13.836221590909092Q27.224857954545456 14.209375000000001 27.285369318181818 14.69346590909091Q27.34588068181818 15.17755681818182 27.34588068181818 15.782670454545455Q27.34588068181818 16.972727272727273 27.103835227272725 17.78963068181818Q26.86178977272727 18.60653409090909 26.418039772727273 19.08053977272727Q25.974289772727275 19.554545454545455 25.349005681818184 19.806676136363635Q24.723721590909093 20.058806818181818 23.967329545454547 20.12940340909091Q23.2109375 20.2 22.36377840909091 20.2Z"/>
  <path fill="#FF8C1A" d="M5.55 23.2h14.07l-0.9 2.6h-14.07z"/>
</svg>
